<svg xmlns="http://www.w3.org/2000/svg" width="887" height="1774" viewBox="0 0 887 1774">
  <defs>
    <linearGradient id="bgGrad" x1="0" y1="0" x2="0" y2="1">
      <stop offset="0" stop-color="#34251d"/>
      <stop offset="0.46" stop-color="#221711"/>
      <stop offset="1" stop-color="#130b08"/>
    </linearGradient>
    <linearGradient id="paper" x1="0" y1="0" x2="0" y2="1">
      <stop offset="0" stop-color="#edd8ac"/>
      <stop offset="0.55" stop-color="#d6b982"/>
      <stop offset="1" stop-color="#bb9160"/>
    </linearGradient>
    <linearGradient id="paperLight" x1="0" y1="0" x2="0" y2="1">
      <stop offset="0" stop-color="#fff0c8"/>
      <stop offset="1" stop-color="#dfbe82"/>
    </linearGradient>
    <linearGradient id="wood" x1="0" y1="0" x2="0" y2="1">
      <stop offset="0" stop-color="#6d4025"/>
      <stop offset="0.5" stop-color="#3d2115"/>
      <stop offset="1" stop-color="#24120b"/>
    </linearGradient>
    <linearGradient id="titleWood" x1="0" y1="0" x2="0" y2="1">
      <stop offset="0" stop-color="#7a4a2b"/>
      <stop offset="0.55" stop-color="#422315"/>
      <stop offset="1" stop-color="#26130d"/>
    </linearGradient>
    <linearGradient id="gold" x1="0" y1="0" x2="0" y2="1">
      <stop offset="0" stop-color="#fff4a8"/>
      <stop offset="0.42" stop-color="#e5aa2f"/>
      <stop offset="1" stop-color="#9b5b14"/>
    </linearGradient>
    <linearGradient id="orangeCell" x1="0" y1="0" x2="0" y2="1">
      <stop offset="0" stop-color="#ffb957"/>
      <stop offset="1" stop-color="#e1752e"/>
    </linearGradient>
    <linearGradient id="paleCell" x1="0" y1="0" x2="0" y2="1">
      <stop offset="0" stop-color="#f4d99d"/>
      <stop offset="1" stop-color="#e4bf78"/>
    </linearGradient>
    <linearGradient id="greenCard" x1="0" y1="0" x2="0" y2="1">
      <stop offset="0" stop-color="#587d36"/>
      <stop offset="1" stop-color="#263f1c"/>
    </linearGradient>
    <linearGradient id="blueCard" x1="0" y1="0" x2="0" y2="1">
      <stop offset="0" stop-color="#356889"/>
      <stop offset="1" stop-color="#183147"/>
    </linearGradient>
    <linearGradient id="purpleCard" x1="0" y1="0" x2="0" y2="1">
      <stop offset="0" stop-color="#754085"/>
      <stop offset="1" stop-color="#3b1d48"/>
    </linearGradient>
    <linearGradient id="redButton" x1="0" y1="0" x2="0" y2="1">
      <stop offset="0" stop-color="#9f493a"/>
      <stop offset="1" stop-color="#5a231d"/>
    </linearGradient>
    <linearGradient id="maskFade" x1="0" y1="0" x2="1" y2="0">
      <stop offset="0" stop-color="#e4c38a" stop-opacity="0"/>
      <stop offset="0.24" stop-color="#e4c38a" stop-opacity="0.48"/>
      <stop offset="0.5" stop-color="#e4c38a" stop-opacity="0.94"/>
      <stop offset="1" stop-color="#e4c38a" stop-opacity="1"/>
    </linearGradient>
    <filter id="shadow" x="-20%" y="-20%" width="140%" height="150%">
      <feDropShadow dx="0" dy="8" stdDeviation="5" flood-color="#0b0503" flood-opacity="0.55"/>
    </filter>
    <filter id="smallShadow" x="-18%" y="-18%" width="136%" height="140%">
      <feDropShadow dx="0" dy="4" stdDeviation="2.5" flood-color="#100705" flood-opacity="0.48"/>
    </filter>
    <filter id="glow" x="-35%" y="-35%" width="170%" height="170%">
      <feGaussianBlur stdDeviation="7" result="blur"/>
      <feColorMatrix in="blur" type="matrix" values="1 0 0 0 1 0 0.72 0 0 0.42 0 0 0.25 0 0.05 0 0 0 0.55 0"/>
      <feBlend in="SourceGraphic" mode="screen"/>
    </filter>
    <style>
      .cn {
        font-family: "PingFang SC", "STHeiti", "Microsoft YaHei", sans-serif;
        font-weight: 900;
        letter-spacing: 0;
        paint-order: stroke;
        stroke-linejoin: round;
      }
      .cream-title {
        fill: #fff0c8;
        stroke: #1a0b06;
        stroke-width: 7px;
      }
      .dark-title {
        fill: #2b1a10;
        stroke: #ead8b1;
        stroke-width: 2px;
      }
      .dark-text {
        fill: #2d1b10;
      }
      .label-light {
        fill: #fff1c2;
        stroke: #3b1b0d;
        stroke-width: 4px;
      }
      .label-dark {
        fill: #4b2e18;
      }
      .small {
        font-size: 20px;
      }
    </style>

    <symbol id="coin" viewBox="0 0 64 64">
      <circle cx="32" cy="32" r="25" fill="url(#gold)" stroke="#7b4613" stroke-width="5"/>
      <circle cx="32" cy="32" r="17" fill="#f7c33e" stroke="#ba7418" stroke-width="3"/>
      <path d="M22 28 C24 18 39 18 42 28 C35 24 29 24 22 28 Z" fill="#fff18e" opacity="0.65"/>
      <path d="M24 38 C31 44 39 42 44 34" fill="none" stroke="#8a5012" stroke-width="5" stroke-linecap="round"/>
      <path d="M23 24 L29 25 L32 18 L35 25 L42 24 L38 30 L42 36 L34 35 L32 43 L29 35 L22 36 L26 30 Z" fill="#ffe666" stroke="#9b5b14" stroke-width="2"/>
    </symbol>

    <symbol id="exp" viewBox="0 0 64 64">
      <path d="M32 4 L59 32 L32 60 L5 32 Z" fill="#4eb3e8" stroke="#145179" stroke-width="5"/>
      <path d="M32 10 L52 32 L32 54 L12 32 Z" fill="#78d3ff" opacity="0.65"/>
      <text x="32" y="38" text-anchor="middle" class="cn" font-size="17" fill="#fff7d6" stroke="#155274" stroke-width="2">EXP</text>
    </symbol>

    <symbol id="scroll" viewBox="0 0 64 64">
      <path d="M16 10 H46 C54 10 57 17 52 23 V49 H18 C10 49 8 39 16 34 Z" fill="#ecd39c" stroke="#6c4324" stroke-width="5"/>
      <path d="M16 10 C8 10 7 22 16 23 H50 C57 23 56 10 48 10" fill="#f6e3b2" stroke="#6c4324" stroke-width="4"/>
      <line x1="22" y1="31" x2="44" y2="31" stroke="#9a6a36" stroke-width="3" stroke-linecap="round"/>
      <line x1="22" y1="39" x2="38" y2="39" stroke="#9a6a36" stroke-width="3" stroke-linecap="round"/>
      <circle cx="47" cy="50" r="7" fill="#b63c2a" stroke="#6c231b" stroke-width="3"/>
    </symbol>

    <symbol id="pouch" viewBox="0 0 80 80">
      <path d="M31 16 C27 11 32 7 40 9 C48 7 53 11 49 16 L57 27 C67 41 64 67 40 70 C16 67 13 41 23 27 Z" fill="#e49d38" stroke="#7a351b" stroke-width="6"/>
      <path d="M23 29 C33 34 47 34 57 29" fill="none" stroke="#f8d071" stroke-width="5" stroke-linecap="round"/>
      <path d="M24 28 L55 28" stroke="#8f2e1b" stroke-width="5" stroke-linecap="round"/>
      <path d="M28 19 C34 25 47 25 52 19" fill="none" stroke="#c04425" stroke-width="5" stroke-linecap="round"/>
      <circle cx="40" cy="46" r="12" fill="#f8c35a" opacity="0.45"/>
    </symbol>

    <symbol id="greenItem" viewBox="0 0 80 80">
      <ellipse cx="40" cy="48" rx="24" ry="19" fill="#65ce74" stroke="#1d703a" stroke-width="6"/>
      <path d="M20 45 C34 34 48 34 62 45" fill="none" stroke="#e0f499" stroke-width="5" stroke-linecap="round"/>
      <path d="M27 27 C15 22 11 13 14 7 C26 9 33 15 34 26" fill="#55be5a" stroke="#1d703a" stroke-width="5"/>
      <path d="M37 26 C36 12 44 5 56 4 C61 15 54 25 40 32" fill="#75d968" stroke="#1d703a" stroke-width="5"/>
      <path d="M22 53 L55 31" stroke="#f7e36a" stroke-width="6" stroke-linecap="round"/>
      <circle cx="58" cy="55" r="5" fill="#42b3b0"/>
    </symbol>

    <symbol id="crystals" viewBox="0 0 120 110">
      <path d="M22 82 L37 34 L54 82 Z" fill="#6ed6ff" stroke="#14506d" stroke-width="5"/>
      <path d="M47 88 L65 13 L86 88 Z" fill="#73e6ff" stroke="#14506d" stroke-width="5"/>
      <path d="M75 89 L96 41 L111 89 Z" fill="#42b9ee" stroke="#14506d" stroke-width="5"/>
      <path d="M36 82 H102 L87 102 H18 Z" fill="#195277" stroke="#0e2d40" stroke-width="4"/>
      <path d="M65 16 L65 86" stroke="#d6fbff" stroke-width="4" opacity="0.65"/>
    </symbol>

    <symbol id="crown" viewBox="0 0 120 110">
      <path d="M16 77 L25 34 L48 59 L60 22 L73 59 L96 34 L104 77 Z" fill="url(#gold)" stroke="#713f12" stroke-width="6" stroke-linejoin="round"/>
      <path d="M19 77 H101 L94 96 H26 Z" fill="#d38921" stroke="#713f12" stroke-width="6"/>
      <path d="M56 63 L60 53 L65 63 L60 72 Z" fill="#d94536" stroke="#84241b" stroke-width="3"/>
      <circle cx="25" cy="34" r="7" fill="#ffe985" stroke="#713f12" stroke-width="4"/>
      <circle cx="60" cy="22" r="8" fill="#ffe985" stroke="#713f12" stroke-width="4"/>
      <circle cx="96" cy="34" r="7" fill="#ffe985" stroke="#713f12" stroke-width="4"/>
    </symbol>
  </defs>

  <rect width="887" height="1774" fill="url(#bgGrad)"/>

  <!-- Background hall -->
  <g opacity="0.9">
    <rect x="0" y="0" width="887" height="1774" fill="url(#bgGrad)"/>
    <path d="M0 108 H887 M0 231 H887 M0 365 H887 M0 1533 H887" stroke="#4e382c" stroke-width="10" opacity="0.36"/>
    <path d="M86 0 V1774 M798 0 V1774 M212 0 V350 M681 0 V390" stroke="#4a3328" stroke-width="16" opacity="0.45"/>
    <path d="M350 0 C350 120 533 120 533 0 V195 H350 Z" fill="#7f5736" opacity="0.32"/>
    <circle cx="443" cy="95" r="73" fill="#f5d086" opacity="0.28"/>
    <g fill="#251812" opacity="0.75">
      <circle cx="383" cy="119" r="20"/>
      <rect x="371" y="137" width="28" height="44" rx="13"/>
      <circle cx="434" cy="112" r="22"/>
      <rect x="421" y="133" width="30" height="50" rx="14"/>
      <circle cx="492" cy="118" r="20"/>
      <rect x="480" y="136" width="28" height="45" rx="13"/>
    </g>
    <g opacity="0.9">
      <rect x="42" y="315" width="36" height="280" rx="16" fill="#3a2518"/>
      <path d="M60 330 L71 382 L58 418 L47 382 Z" fill="#ffbf53" opacity="0.72"/>
      <rect x="811" y="332" width="32" height="270" rx="14" fill="#3a2518"/>
      <path d="M827 344 L838 391 L826 425 L816 391 Z" fill="#ffbf53" opacity="0.65"/>
    </g>
  </g>

  <!-- Main title board -->
  <g filter="url(#shadow)">
    <path d="M226 95 H661 L704 126 V183 L661 214 H226 L183 183 V126 Z" fill="url(#titleWood)" stroke="#160b07" stroke-width="8" stroke-linejoin="round"/>
    <path d="M236 111 H651 L682 134 V174 L651 197 H236 L205 174 V134 Z" fill="none" stroke="#a67646" stroke-width="5" opacity="0.62"/>
    <circle cx="242" cy="143" r="8" fill="#b48355" stroke="#1a0c07" stroke-width="4"/>
    <circle cx="646" cy="143" r="8" fill="#b48355" stroke="#1a0c07" stroke-width="4"/>
    <text x="444" y="172" text-anchor="middle" class="cn cream-title" font-size="64">军团捐献</text>
  </g>

  <!-- Banner and close button -->
  <g filter="url(#smallShadow)">
    <path d="M88 73 H185 V236 L136 206 L88 236 Z" fill="#8e372c" stroke="#3a160f" stroke-width="6"/>
    <path d="M118 148 L137 108 L156 148 L181 132 L170 183 H105 L94 132 Z" fill="#e6b451" stroke="#3a160f" stroke-width="6" stroke-linejoin="round"/>
    <rect x="720" y="112" width="82" height="82" rx="12" fill="url(#redButton)" stroke="#2c110c" stroke-width="7"/>
    <path d="M742 134 L779 171 M779 134 L742 171" stroke="#ffe8b6" stroke-width="13" stroke-linecap="round"/>
    <path d="M742 134 L779 171 M779 134 L742 171" stroke="#4b2015" stroke-width="5" stroke-linecap="round" opacity="0.42"/>
  </g>

  <!-- Top construction panel -->
  <g filter="url(#shadow)">
    <path d="M88 216 H799 L824 241 V502 L796 527 H90 L61 501 V242 Z" fill="url(#paper)" stroke="#6d4a2d" stroke-width="6" stroke-linejoin="round"/>
    <path d="M103 234 H783 L806 255 V488 L780 510 H105 L82 488 V256 Z" fill="#f4ddb2" opacity="0.45"/>
    <g transform="translate(124 291)">
      <rect x="0" y="73" width="158" height="48" fill="#a98054"/>
      <path d="M23 61 H108 V15 H62 V0 H28 V15 H0 V75 H23 Z" fill="#9a9a91" stroke="#4e4033" stroke-width="6"/>
      <path d="M87 117 L122 87" stroke="#684025" stroke-width="11" stroke-linecap="round"/>
      <ellipse cx="138" cy="78" rx="30" ry="19" transform="rotate(-28 138 78)" fill="#9c9a92" stroke="#4e4033" stroke-width="6"/>
      <path d="M152 96 L185 139" stroke="#684025" stroke-width="12" stroke-linecap="round"/>
      <path d="M18 26 V82 M50 17 V103 M89 18 V88 M121 50 V116" stroke="#3e2a1d" stroke-width="6"/>
      <path d="M78 0 L137 19 L137 40 L78 23 Z" fill="#8e2f2a" stroke="#4b1711" stroke-width="5"/>
      <path d="M91 17 L101 7 L110 18 L121 11 L117 26 H94 Z" fill="#e6b451"/>
    </g>
    <text x="466" y="338" text-anchor="middle" class="cn dark-title" font-size="45">军团建设 Lv.2</text>
    <rect x="350" y="376" width="306" height="34" rx="17" fill="#1c110c" stroke="#120905" stroke-width="5"/>
    <rect x="350" y="376" width="199" height="34" rx="17" fill="url(#gold)" stroke="#f9d46c" stroke-width="2"/>
    <text x="666" y="405" class="cn dark-text" font-size="28">1200/2000</text>
    <text x="350" y="457" class="cn dark-text" font-size="25">升级后：解锁2级军团商店物品</text>
    <text x="350" y="493" class="cn dark-text" font-size="25">集结次数上限 +1</text>
  </g>

  <!-- Middle reward panel -->
  <g id="reward-panel" filter="url(#shadow)">
    <path d="M88 545 H799 L824 570 V760 L797 783 H90 L62 758 V571 Z" fill="url(#paper)" stroke="#6d4a2d" stroke-width="6" stroke-linejoin="round"/>
    <path d="M103 560 H783 L804 579 V746 L779 766 H105 L83 746 V580 Z" fill="#f4ddb2" opacity="0.34"/>
    <text x="122" y="611" class="cn dark-title" font-size="34">本周捐献进度</text>
    <text x="708" y="611" class="cn dark-text" font-size="38">2 / 5</text>

    <!-- Reward list area: no progress bar, no nodes. -->
    <clipPath id="scrollCellsClip">
      <rect x="103" y="635" width="502" height="121" rx="7"/>
    </clipPath>
    <g clip-path="url(#scrollCellsClip)">
      <g transform="translate(103 635)">
        <g>
          <rect x="0" y="0" width="168" height="121" rx="6" fill="#f3dcaa" stroke="#b58a51" stroke-width="2"/>
          <rect x="0" y="0" width="168" height="35" rx="6" fill="url(#orangeCell)"/>
          <text x="84" y="25" text-anchor="middle" class="cn label-light" font-size="21">450贡献值</text>
          <use href="#greenItem" x="18" y="43" width="55" height="55"/>
          <use href="#coin" x="86" y="43" width="55" height="55"/>
          <text x="127" y="95" text-anchor="middle" class="cn label-light" font-size="18">1500</text>
          <text x="84" y="115" text-anchor="middle" class="cn label-light" font-size="23">即将可领</text>
        </g>
        <g transform="translate(168 0)">
          <rect x="0" y="0" width="168" height="121" fill="#efd39a" stroke="#b58a51" stroke-width="2"/>
          <rect x="0" y="0" width="168" height="35" fill="url(#paleCell)"/>
          <text x="84" y="25" text-anchor="middle" class="cn label-dark" font-size="21">650贡献值</text>
          <use href="#pouch" x="19" y="43" width="57" height="57"/>
          <use href="#coin" x="89" y="43" width="55" height="55"/>
          <text x="129" y="95" text-anchor="middle" class="cn label-light" font-size="18">1500</text>
          <text x="84" y="114" text-anchor="middle" class="cn label-dark" font-size="18">未达成</text>
        </g>
        <g transform="translate(336 0)">
          <rect x="0" y="0" width="168" height="121" fill="#efd39a" stroke="#b58a51" stroke-width="2"/>
          <rect x="0" y="0" width="168" height="35" fill="url(#paleCell)"/>
          <text x="84" y="25" text-anchor="middle" class="cn label-dark" font-size="21">1000贡献值</text>
          <use href="#pouch" x="25" y="43" width="54" height="54"/>
          <use href="#exp" x="91" y="47" width="48" height="48"/>
          <text x="84" y="114" text-anchor="middle" class="cn label-dark" font-size="18">未达成</text>
        </g>
        <g transform="translate(504 0)" opacity="0.62">
          <rect x="0" y="0" width="168" height="121" fill="#efd39a" stroke="#b58a51" stroke-width="2"/>
          <rect x="0" y="0" width="168" height="35" fill="url(#paleCell)"/>
          <text x="84" y="25" text-anchor="middle" class="cn label-dark" font-size="21">1600贡献值</text>
          <use href="#scroll" x="29" y="47" width="48" height="48"/>
          <use href="#coin" x="91" y="45" width="50" height="50"/>
        </g>
      </g>
    </g>

    <!-- Half-cover the next scrolling reward to signal that more rewards continue offscreen. -->
    <rect x="500" y="635" width="112" height="121" fill="url(#maskFade)"/>
    <path d="M608 635 V756" stroke="#b88445" stroke-width="3" opacity="0.75"/>

    <!-- Fixed ultimate reward card -->
    <g transform="translate(608 635)">
      <rect x="0" y="0" width="190" height="121" rx="8" fill="#f19543" stroke="#b55d26" stroke-width="3"/>
      <rect x="0" y="0" width="190" height="35" rx="8" fill="#f47e35"/>
      <text x="95" y="26" text-anchor="middle" class="cn label-light" font-size="22">2700贡献值</text>
      <circle cx="58" cy="73" r="31" fill="#ffd077" opacity="0.28" filter="url(#glow)"/>
      <circle cx="136" cy="73" r="31" fill="#ffd077" opacity="0.22" filter="url(#glow)"/>
      <use href="#pouch" x="24" y="42" width="69" height="69"/>
      <use href="#coin" x="109" y="45" width="62" height="62"/>
      <text x="157" y="99" text-anchor="middle" class="cn label-light" font-size="20">2500</text>
    </g>
  </g>

  <!-- Section sign -->
  <g filter="url(#shadow)">
    <path d="M280 788 H607 L635 815 L608 847 H279 L252 816 Z" fill="url(#titleWood)" stroke="#160b07" stroke-width="7" stroke-linejoin="round"/>
    <path d="M300 803 H588" stroke="#b5834d" stroke-width="4" opacity="0.7"/>
    <text x="444" y="831" text-anchor="middle" class="cn cream-title" font-size="39">选择捐献</text>
    <circle cx="287" cy="817" r="7" fill="#b98752" stroke="#2b1209" stroke-width="4"/>
    <circle cx="601" cy="817" r="7" fill="#b98752" stroke="#2b1209" stroke-width="4"/>
  </g>

  <!-- Donation cards -->
  <g id="donation-cards" filter="url(#shadow)">
    <g transform="translate(75 856)">
      <path d="M0 0 H221 L239 20 V690 L220 710 H2 L-16 692 V20 Z" fill="url(#paperLight)" stroke="#5b3a24" stroke-width="6" stroke-linejoin="round"/>
      <path d="M0 0 H221 V106 L199 126 H22 L0 106 Z" fill="url(#greenCard)" stroke="#1d2e16" stroke-width="5"/>
      <text x="111" y="53" text-anchor="middle" class="cn label-light" font-size="34">建设材料</text>
      <text x="111" y="92" text-anchor="middle" class="cn" font-size="28" fill="#b8ef72" stroke="#1c2b12" stroke-width="4">(1/1)</text>
      <rect x="39" y="147" width="145" height="96" rx="10" fill="#63442b" stroke="#2a160c" stroke-width="6"/>
      <g fill="#9b9b93" stroke="#4f4740" stroke-width="4">
        <rect x="58" y="127" width="42" height="38" rx="4"/>
        <rect x="101" y="121" width="42" height="42" rx="4"/>
        <rect x="82" y="164" width="45" height="39" rx="4"/>
        <rect x="129" y="160" width="36" height="35" rx="4"/>
      </g>
      <path d="M16 272 H205 L219 292 L204 322 H18 L4 292 Z" fill="#dec08b" stroke="#6b4528" stroke-width="5"/>
      <text x="111" y="309" text-anchor="middle" class="cn dark-title" font-size="30">奖励</text>
      <g transform="translate(37 350)">
        <use href="#coin" x="0" y="-9" width="50" height="50"/>
        <text x="90" y="29" class="cn dark-text" font-size="30">20</text>
        <line x1="-8" y1="58" x2="162" y2="58" stroke="#b89360" stroke-width="3"/>
        <use href="#exp" x="3" y="75" width="44" height="44"/>
        <text x="90" y="110" class="cn dark-text" font-size="30">50</text>
        <line x1="-8" y1="137" x2="162" y2="137" stroke="#b89360" stroke-width="3"/>
        <use href="#scroll" x="2" y="155" width="45" height="45"/>
        <text x="90" y="190" class="cn dark-text" font-size="30">1</text>
      </g>
      <rect x="34" y="603" width="174" height="62" rx="9" fill="#476c2d" stroke="#213012" stroke-width="6"/>
      <text x="121" y="648" text-anchor="middle" class="cn label-light" font-size="35">捐献</text>
    </g>

    <g transform="translate(333 856)">
      <path d="M0 0 H221 L239 20 V690 L220 710 H2 L-16 692 V20 Z" fill="url(#paperLight)" stroke="#5b3a24" stroke-width="6" stroke-linejoin="round"/>
      <path d="M0 0 H221 V106 L199 126 H22 L0 106 Z" fill="url(#blueCard)" stroke="#102638" stroke-width="5"/>
      <text x="111" y="53" text-anchor="middle" class="cn label-light" font-size="34">精炼石</text>
      <text x="111" y="92" text-anchor="middle" class="cn" font-size="28" fill="#ff7c61" stroke="#1c2b12" stroke-width="4">(0/1)</text>
      <use href="#crystals" x="50" y="137" width="140" height="130"/>
      <path d="M16 272 H205 L219 292 L204 322 H18 L4 292 Z" fill="#dec08b" stroke="#6b4528" stroke-width="5"/>
      <text x="111" y="309" text-anchor="middle" class="cn dark-title" font-size="30">奖励</text>
      <g transform="translate(37 350)">
        <use href="#coin" x="0" y="-9" width="50" height="50"/>
        <text x="90" y="29" class="cn dark-text" font-size="30">65</text>
        <line x1="-8" y1="58" x2="162" y2="58" stroke="#b89360" stroke-width="3"/>
        <use href="#exp" x="3" y="75" width="44" height="44"/>
        <text x="90" y="110" class="cn dark-text" font-size="30">160</text>
        <line x1="-8" y1="137" x2="162" y2="137" stroke="#b89360" stroke-width="3"/>
        <use href="#scroll" x="2" y="155" width="45" height="45"/>
        <text x="90" y="190" class="cn dark-text" font-size="30">1</text>
      </g>
      <rect x="34" y="603" width="174" height="62" rx="9" fill="#476c2d" stroke="#213012" stroke-width="6"/>
      <text x="121" y="648" text-anchor="middle" class="cn label-light" font-size="35">捐献</text>
    </g>

    <g transform="translate(591 856)">
      <path d="M0 0 H221 L239 20 V690 L220 710 H2 L-16 692 V20 Z" fill="url(#paperLight)" stroke="#5b3a24" stroke-width="6" stroke-linejoin="round"/>
      <path d="M0 0 H221 V106 L199 126 H22 L0 106 Z" fill="url(#purpleCard)" stroke="#2a1234" stroke-width="5"/>
      <text x="111" y="53" text-anchor="middle" class="cn label-light" font-size="34">王冠碎片</text>
      <text x="111" y="92" text-anchor="middle" class="cn" font-size="28" fill="#ff7c61" stroke="#1c2b12" stroke-width="4">(0/1)</text>
      <use href="#crown" x="50" y="142" width="140" height="126"/>
      <path d="M16 272 H205 L219 292 L204 322 H18 L4 292 Z" fill="#dec08b" stroke="#6b4528" stroke-width="5"/>
      <text x="111" y="309" text-anchor="middle" class="cn dark-title" font-size="30">奖励</text>
      <g transform="translate(37 350)">
        <use href="#coin" x="0" y="-9" width="50" height="50"/>
        <text x="90" y="29" class="cn dark-text" font-size="30">220</text>
        <line x1="-8" y1="58" x2="162" y2="58" stroke="#b89360" stroke-width="3"/>
        <use href="#exp" x="3" y="75" width="44" height="44"/>
        <text x="90" y="110" class="cn dark-text" font-size="30">560</text>
        <line x1="-8" y1="137" x2="162" y2="137" stroke="#b89360" stroke-width="3"/>
        <use href="#scroll" x="2" y="155" width="45" height="45"/>
        <text x="90" y="190" class="cn dark-text" font-size="30">1</text>
      </g>
      <rect x="34" y="603" width="174" height="62" rx="9" fill="#476c2d" stroke="#213012" stroke-width="6"/>
      <text x="121" y="648" text-anchor="middle" class="cn label-light" font-size="35">捐献</text>
    </g>
  </g>

  <!-- Foreground table props -->
  <g opacity="0.85" filter="url(#smallShadow)">
    <ellipse cx="151" cy="1602" rx="58" ry="14" fill="#160b06" opacity="0.45"/>
    <use href="#coin" x="70" y="1551" width="43" height="43"/>
    <use href="#coin" x="121" y="1579" width="43" height="43"/>
    <use href="#coin" x="182" y="1557" width="43" height="43"/>
    <rect x="350" y="1590" width="188" height="104" rx="8" fill="#6a2f24" stroke="#35130e" stroke-width="6" transform="rotate(2 444 1642)"/>
    <path d="M409 1643 L432 1608 L455 1643 L486 1627 L474 1674 H386 L374 1627 Z" fill="#d59b43" opacity="0.78"/>
    <path d="M612 1580 L796 1541 L824 1668 L639 1705 Z" fill="#ead8b2" stroke="#6c4324" stroke-width="6" transform="rotate(-7 718 1623)"/>
    <path d="M657 1608 L742 1590 M665 1641 L772 1618" stroke="#9e764b" stroke-width="5" stroke-linecap="round"/>
  </g>
</svg>
